_states
version=1
nRows=67
nColumns=7
inDegrees=yes

# SIMM Motion File Header:
name _states
datacolumns 7
datarows 67
otherdata 1
range 0.50907552 0.76829753
endheader
time	block_tz	block_tz_u	RightMuscle.activation	RightMuscle.fiber_length	LeftMuscle.activation	LeftMuscle.fiber_length
      0.50907552	     -0.03370462	     -0.33752937	      0.98171159	      0.06352084	      0.05919811	      0.12973826
      0.51288262	     -0.03495029	     -0.31607102	      0.96603583	      0.06219645	      0.08363325	      0.13066393
      0.51668971	     -0.03610458	     -0.28945166	      0.94678737	      0.06094970	      0.11294054	      0.13149234
      0.51973823	     -0.03694970	     -0.26446724	      0.92929987	      0.06002164	      0.13806420	      0.13208072
      0.52278674	     -0.03771387	     -0.23638530	      0.91031220	      0.05916981	      0.16394110	      0.13260600
      0.52641074	     -0.03850458	     -0.19938326	      0.88615329	      0.05827069	      0.19523388	      0.13313624
      0.53003474	     -0.03915487	     -0.15901552	      0.86061818	      0.05750445	      0.22683803	      0.13355898
      0.53365873	     -0.03965402	     -0.11613016	      0.83400731	      0.05687503	      0.25860937	      0.13386889
      0.53728273	     -0.03999493	     -0.07192032	      0.80656427	      0.05638124	      0.29047356	      0.13407010
      0.54090673	     -0.04017574	     -0.02811434	      0.77848666	      0.05601660	      0.32239091	      0.13417822
      0.54453072	     -0.04020196	      0.01297872	      0.74993505	      0.05576935	      0.35433955	      0.13421025
      0.54890491	     -0.04004873	      0.05552619	      0.71502644	      0.05560786	      0.39292621	      0.13414862
      0.55428154	     -0.03964106	      0.09326123	      0.67170144	      0.05559781	      0.44037646	      0.13390828
      0.55664534	     -0.03940672	      0.10449724	      0.65257363	      0.05566712	      0.46124193	      0.13374254
      0.55950572	     -0.03909267	      0.11456885	      0.62940032	      0.05584833	      0.48649304	      0.13349587
      0.56236611	     -0.03875355	      0.12228713	      0.60622458	      0.05613578	      0.51174597	      0.13320552
      0.56522649	     -0.03839417	      0.12886934	      0.58307209	      0.05648082	      0.53700021	      0.13287969
      0.56874235	     -0.03792800	      0.13622317	      0.55467927	      0.05694599	      0.56804289	      0.13244069
      0.57225820	     -0.03743672	      0.14322007	      0.52639317	      0.05744649	      0.59908659	      0.13196754
      0.57577405	     -0.03692099	      0.15017804	      0.49824687	      0.05798113	      0.63013099	      0.13146564
      0.57928991	     -0.03638049	      0.15735279	      0.47027001	      0.05855202	      0.66117589	      0.13093788
      0.58280576	     -0.03581403	      0.16499009	      0.44248959	      0.05916322	      0.69222115	      0.13038543
      0.58632162	     -0.03521952	      0.17335772	      0.41493056	      0.05982083	      0.72326667	      0.12980819
      0.58948552	     -0.03465801	      0.18176276	      0.39033893	      0.06045908	      0.75120454	      0.12926668
      0.59264942	     -0.03406825	      0.19125510	      0.36596175	      0.06114577	      0.77914253	      0.12870280
      0.59581332	     -0.03344645	      0.20204665	      0.34181466	      0.06188385	      0.80708060	      0.12811448
      0.59897722	     -0.03278826	      0.21426750	      0.31791285	      0.06267384	      0.83501875	      0.12749910
      0.60048584	     -0.03246028	      0.22060444	      0.30686971	      0.06306863	      0.84827140	      0.12719525
      0.60199446	     -0.03212249	      0.22725399	      0.29639553	      0.06347238	      0.86058935	      0.12688439
      0.60547923	     -0.03130247	      0.24357380	      0.27416201	      0.06443588	      0.88500679	      0.12613978
      0.60896400	     -0.03042399	      0.26070013	      0.25432420	      0.06544629	      0.90481945	      0.12535677
      0.61244877	     -0.02948533	      0.27801266	      0.23653168	      0.06650531	      0.92100383	      0.12453236
      0.61593354	     -0.02848681	      0.29496966	      0.22049899	      0.06761444	      0.93429376	      0.12366335
      0.62025505	     -0.02716854	      0.31489089	      0.20271241	      0.06905795	      0.94758728	      0.12252004
      0.62457656	     -0.02576776	      0.33308809	      0.18690881	      0.07057561	      0.95810414	      0.12130172
      0.62889807	     -0.02429254	      0.34931948	      0.17279479	      0.07215945	      0.96645632	      0.12000839
      0.63321958	     -0.02275152	      0.36355363	      0.16013175	      0.07380294	      0.97310921	      0.11864226
      0.63754109	     -0.02115306	      0.37593225	      0.14872369	      0.07549820	      0.97842089	      0.11720722
      0.64273243	     -0.01916746	      0.38870132	      0.13645138	      0.07759216	      0.98341640	      0.11539924
      0.64792376	     -0.01712055	      0.39963305	      0.12552492	      0.07974173	      0.98724430	      0.11350830
      0.65309869	     -0.01502726	      0.40919803	      0.11578437	      0.08192809	      0.99017395	      0.11155001
      0.65827361	     -0.01288710	      0.41780051	      0.10703878	      0.08415516	      0.99242690	      0.10952744
      0.66378221	     -0.01056218	      0.42620047	      0.09867883	      0.08656327	      0.99425804	      0.10731460
      0.66929081	     -0.00819290	      0.43388999	      0.09117185	      0.08901045	      0.99564496	      0.10505404
      0.67451677	     -0.00590797	      0.44043310	      0.08474013	      0.09136157	      0.99664892	      0.10287705
      0.67974274	     -0.00359120	      0.44604721	      0.07890075	      0.09374341	      0.99742098	      0.10067058
      0.68373262	     -0.00180397	      0.44977232	      0.07479956	      0.09558001	      0.99788815	      0.09895799
      0.68874002	      0.00045909	      0.45410202	      0.07004616	      0.09791091	      0.99835647	      0.09677473
      0.69374741	      0.00274352	      0.45831254	      0.06568902	      0.10026934	      0.99872084	      0.09456174
      0.69783187	      0.00462244	      0.46166784	      0.06240073	      0.10219288	      0.99895731	      0.09274252
      0.70191633	      0.00651414	      0.46446156	      0.05933061	      0.10409544	      0.99915004	      0.09091356
      0.70600079	      0.00841539	      0.46635149	      0.05646149	      0.10599602	      0.99930712	      0.08907512
      0.71092983	      0.01071713	      0.46739218	      0.05324475	      0.10830110	      0.99945853	      0.08684515
      0.71588807	      0.01303461	      0.46720151	      0.05025681	      0.11062061	      0.99957746	      0.08459232
      0.72084631	      0.01534818	      0.46578925	      0.04749535	      0.11292107	      0.99967026	      0.08233406
      0.72521806	      0.01737973	      0.46339814	      0.04523258	      0.11491975	      0.99973502	      0.08034242
      0.72914606	      0.01919398	      0.46014491	      0.04332641	      0.11668404	      0.99978227	      0.07855596
      0.73307406	      0.02099305	      0.45563684	      0.04153196	      0.11841094	      0.99982110	      0.07677584
      0.73700206	      0.02277160	      0.44965367	      0.03984179	      0.12009272	      0.99985301	      0.07500598
      0.74093006	      0.02452339	      0.44197533	      0.03824904	      0.12172324	      0.99987922	      0.07325098
      0.74485806	      0.02624138	      0.43241803	      0.03674740	      0.12329689	      0.99990076	      0.07151617
      0.74878606	      0.02791792	      0.42085690	      0.03533102	      0.12480923	      0.99991846	      0.06980767
      0.75271406	      0.02954500	      0.40723499	      0.03399450	      0.12625788	      0.99993300	      0.06813230
      0.75664206	      0.03111452	      0.39156246	      0.03273285	      0.12764273	      0.99994495	      0.06649745
      0.76152584	      0.03297378	      0.36933905	      0.03126166	      0.12927625	      0.99995687	      0.06453333
      0.76518377	      0.03429150	      0.35089774	      0.03022592	      0.13042716	      0.99996408	      0.06312112
      0.76829753	      0.03535819	      0.33408615	      0.02938623	      0.13136305	      0.99996926	      0.06196536
